<svg xmlns="http://www.w3.org/2000/svg" version="1.1" xmlns:xlink="http://www.w3.org/1999/xlink" xmlns:svgjs="http://svgjs.dev/svgjs" width="1500" height="1500" viewBox="0 0 1500 1500"><g transform="matrix(1,0,0,1,0,0)"><svg viewBox="0 0 280 280" data-background-color="#ffffff" preserveAspectRatio="xMidYMid meet" height="1500" width="1500" xmlns="http://www.w3.org/2000/svg" xmlns:xlink="http://www.w3.org/1999/xlink"><g id="tight-bounds" transform="matrix(1,0,0,1,0,0)"><svg viewBox="0 0 280 280" height="280" width="280"><g><svg viewBox="0 0 280 280" height="280" width="280"><g><svg viewBox="0 0 280 280" height="280" width="280"><g id="textblocktransform"><svg viewBox="0 0 280 280" height="280" width="280" id="textblock"><g><svg viewBox="0 0 280 280" height="280" width="280"><g transform="matrix(1,0,0,1,74.00336708925556,85.88125070721958)"><svg viewBox="0 0 131.99326582148888 108.23749858556084" height="108.23749858556084" width="131.99326582148888"><g id="icon-0"><svg xmlns="http://www.w3.org/2000/svg" xmlns:xlink="http://www.w3.org/1999/xlink" version="1.1" x="0" y="0" viewBox="0 -0.002288459127947312 100 82.00228845912795" enable-background="new 0 0 100 82" xml:space="preserve" id="jxe-0" width="131.99326582148888" height="108.23749858556084" class="icon-jxe-0" data-fill-palette-color="accent"><polygon points="100,53 100,47 0,47 0,53 44,53 44,57 34,57 50,82 66,57 56,57 56,53 " fill="#39cccc" data-fill-palette-color="accent"></polygon><path d="M50 18C36.193 18 25 29.192 25 43H75C75 29.192 63.807 18 50 18" fill="#39cccc" data-fill-palette-color="accent"></path><g fill="#39cccc" data-fill-palette-color="accent"><path d="M10.088 24.211A3 3 0 0 0 9 24 2.995 2.995 0 0 0 7.912 29.789L7.91 29.795 21.911 35.259 24.092 29.669 10.091 24.205z" fill="#39cccc" data-fill-palette-color="accent"></path><path d="M34.731 1.771A2.996 2.996 0 0 0 29 3C29 3.439 29.1 3.853 29.269 4.229L29.264 4.231 35.564 18.231 41.036 15.769 34.736 1.769z" fill="#39cccc" data-fill-palette-color="accent"></path><path d="M94 27A3 3 0 0 0 91 24C90.615 24 90.25 24.079 89.911 24.211L89.909 24.205 75.907 29.669 78.089 35.259 92.091 29.795 92.089 29.789A2.995 2.995 0 0 0 94 27" fill="#39cccc" data-fill-palette-color="accent"></path><path d="M68 0A2.99 2.99 0 0 0 65.27 1.771L65.265 1.769 65.239 1.829 65.236 1.835 58.965 15.769 64.436 18.231 70.736 4.231 70.732 4.229C70.9 3.853 71 3.439 71 3A3 3 0 0 0 68 0" fill="#39cccc" data-fill-palette-color="accent"></path></g></svg></g></svg></g><g id="text-0"><path d="M72.451 12.063c2.972-1.566 5.573-2.092 7.804-1.578 2.235 0.52 4.031 2.07 5.391 4.65v0c1.448 2.748 1.745 5.201 0.889 7.357-0.852 2.162-2.712 3.999-5.581 5.511v0l-1.658 0.873 4.946 9.387-3.352 1.767-13.368-25.37zM79.555 25.348c1.885-0.993 3.061-2.122 3.529-3.388 0.462-1.262 0.156-2.911-0.917-4.946v0c-0.971-1.842-2.12-2.939-3.446-3.289-1.333-0.347-2.93-0.031-4.79 0.949v0l-1.658 0.874 5.624 10.674z" fill="#ffffff" data-fill-palette-color="primary"></path><path d="M198.314 7.439l-7.425 27.764-3.393-1.155 3.489-12.573c1.391-5.21 2.51-8.976 3.358-11.299v0l-11.551 18.842-3.354-1.141 2.12-22.095-0.579 1.827c-0.697 2.049-1.894 5.215-3.589 9.499v0l-4.787 11.873-3.383-1.152 11.09-26.517 4.644 1.58-2.359 21.397 10.949-18.474z" fill="#ffffff" data-fill-palette-color="primary"></path><path d="M0 142.876c0-6.05 4.904-10.954 10.954-10.954 6.05 0 10.954 4.904 10.955 10.954 0 6.05-4.904 10.954-10.955 10.955-6.05 0-10.954-4.904-10.954-10.955z" fill="#ffffff" data-fill-palette-color="primary"></path><path d="M258.091 142.876c0-6.05 4.904-10.954 10.955-10.954 6.05 0 10.954 4.904 10.954 10.954 0 6.05-4.904 10.954-10.954 10.955-6.05 0-10.954-4.904-10.955-10.955z" fill="#ffffff" data-fill-palette-color="primary"></path></g><g id="text-1"><path d="M88.962 242.355c2.972 1.566 4.876 3.415 5.713 5.546 0.834 2.137 0.572 4.496-0.787 7.075v0c-1.448 2.748-3.303 4.379-5.565 4.893-2.265 0.52-4.832 0.024-7.702-1.488v0l-1.658-0.873-4.946 9.387-3.352-1.767 13.368-25.37zM82.02 255.727c1.885 0.993 3.481 1.325 4.789 0.995 1.302-0.333 2.489-1.517 3.562-3.552v0c0.971-1.842 1.226-3.41 0.765-4.703-0.467-1.296-1.631-2.434-3.492-3.414v0l-1.658-0.874-5.624 10.674z" fill="#ffffff" data-fill-palette-color="primary"></path><path d="M186.904 244.784l11.051 26.53-3.393 1.155-4.905-12.092c-2.076-4.977-3.486-8.644-4.23-11.001v0l2.339 21.976-3.354 1.142-11.797-18.802 0.656 1.8c0.697 2.049 1.68 5.288 2.95 9.717v0l3.448 12.328-3.383 1.151-7.387-27.777 4.645-1.581 11.181 18.394-2.591-21.317z" fill="#ffffff" data-fill-palette-color="primary"></path></g></svg></g></svg></g></svg></g></svg></g><defs></defs></svg><rect width="280" height="280" fill="none" stroke="none" visibility="hidden"></rect></g></svg></g></svg>